<svg width="40" height="40" viewBox="0 0 40 40" fill="none" xmlns="http://www.w3.org/2000/svg">
<path d="M29.5403 0.650644C29.9571 0.234037 30.5222 0 31.1115 0C31.7007 0 32.2659 0.234037 32.6826 0.650644L39.3494 7.31739C39.766 7.73412 40 8.29926 40 8.88852C40 9.47778 39.766 10.0429 39.3494 10.4596L19.3491 30.4599C18.9325 30.8767 18.3673 31.1109 17.778 31.111H11.1112C10.5219 31.111 9.95663 30.8769 9.53988 30.4601C9.12312 30.0434 8.88899 29.4781 8.88899 28.8888V22.222C8.88912 21.6327 9.12333 21.0675 9.54011 20.6509L29.5403 0.650644ZM13.3335 23.142V26.6665H16.858L34.636 8.88852L31.1115 5.36403L13.3335 23.142ZM0 8.88852C0 7.70977 0.468258 6.57929 1.30176 5.74579C2.13527 4.91228 3.26574 4.44402 4.4445 4.44402H15.5557C16.1451 4.44402 16.7104 4.67815 17.1271 5.0949C17.5439 5.51166 17.778 6.07689 17.778 6.66627C17.778 7.25565 17.5439 7.82089 17.1271 8.23764C16.7104 8.65439 16.1451 8.88852 15.5557 8.88852H4.4445V35.5555H31.1115V24.4443C31.1115 23.8549 31.3456 23.2896 31.7624 22.8729C32.1791 22.4561 32.7444 22.222 33.3337 22.222C33.9231 22.222 34.4883 22.4561 34.9051 22.8729C35.3218 23.2896 35.556 23.8549 35.556 24.4443V35.5555C35.556 36.7343 35.0877 37.8647 34.2542 38.6982C33.4207 39.5317 32.2902 40 31.1115 40H4.4445C3.26574 40 2.13527 39.5317 1.30176 38.6982C0.468258 37.8647 0 36.7343 0 35.5555V8.88852Z" fill="#9C9C9C"/>
</svg>
