<svg width="40" height="40" viewBox="0 0 40 40" fill="none" xmlns="http://www.w3.org/2000/svg">
<path d="M14 18.0507H26C26.5304 18.0507 27.0391 18.256 27.4142 18.6216C27.7893 18.9872 28 19.483 28 19.9999C28 20.5169 27.7893 21.0127 27.4142 21.3783C27.0391 21.7439 26.5304 21.9492 26 21.9492H14C13.4696 21.9492 12.9609 21.7439 12.5858 21.3783C12.2107 21.0127 12 20.5169 12 19.9999C12 19.483 12.2107 18.9872 12.5858 18.6216C12.9609 18.256 13.4696 18.0507 14 18.0507Z" fill="#9C9C9C"/>
<path fill-rule="evenodd" clip-rule="evenodd" d="M8.8886 3.79222C12.1776 1.65032 16.0444 0.50708 20 0.50708C22.6264 0.50708 25.2272 1.01128 27.6537 1.99089C30.0802 2.97049 32.285 4.40633 34.1421 6.21641C35.9993 8.02649 37.4725 10.1754 38.4776 12.5403C39.4827 14.9053 40 17.4401 40 19.9999C40 23.8553 38.827 27.624 36.6294 30.8296C34.4318 34.0352 31.3082 36.5336 27.6537 38.009C23.9992 39.4844 19.9778 39.8704 16.0982 39.1183C12.2186 38.3661 8.65492 36.5096 5.85787 33.7835C3.06082 31.0574 1.15601 27.5841 0.384303 23.8028C-0.387401 20.0216 0.00866568 16.1022 1.52242 12.5403C3.03617 8.97849 5.59962 5.93412 8.8886 3.79222ZM11.1109 32.9661C13.7421 34.6797 16.8355 35.5942 20 35.5942C24.2435 35.5942 28.3131 33.9513 31.3137 31.0268C34.3143 28.1023 36 24.1358 36 19.9999C36 16.9157 35.0616 13.9007 33.3035 11.3362C31.5454 8.77175 29.0466 6.77299 26.1229 5.5927C23.1993 4.4124 19.9823 4.10359 16.8786 4.70529C13.7749 5.307 10.9239 6.79222 8.6863 8.97312C6.44866 11.154 4.92481 13.9327 4.30745 16.9577C3.69008 19.9826 4.00694 23.1181 5.21794 25.9676C6.42894 28.8171 8.4797 31.2526 11.1109 32.9661Z" fill="#9C9C9C"/>
</svg>
