<svg width="24" height="24" viewBox="0 0 24 24" fill="none" xmlns="http://www.w3.org/2000/svg">
<path d="M17.7242 0.390386C17.9742 0.140422 18.3133 0 18.6669 0C19.0204 0 19.3595 0.140422 19.6096 0.390386L23.6096 4.39043C23.8596 4.64047 24 4.97956 24 5.33311C24 5.68667 23.8596 6.02575 23.6096 6.27579L11.6095 18.2759C11.3595 18.526 11.0204 18.6665 10.6668 18.6666H6.66675C6.31312 18.6666 5.97398 18.5261 5.72393 18.2761C5.47387 18.026 5.3334 17.6869 5.3334 17.3333V13.3332C5.33347 12.9796 5.474 12.6405 5.72407 12.3905L17.7242 0.390386ZM8.00009 13.8852V15.9999H10.1148L20.7816 5.33311L18.6669 3.21842L8.00009 13.8852ZM0 5.33311C0 4.62586 0.280955 3.94757 0.781058 3.44747C1.28116 2.94737 1.95945 2.66641 2.6667 2.66641H9.33344C9.68707 2.66641 10.0262 2.80689 10.2763 3.05694C10.5263 3.30699 10.6668 3.64614 10.6668 3.99976C10.6668 4.35339 10.5263 4.69253 10.2763 4.94258C10.0262 5.19263 9.68707 5.33311 9.33344 5.33311H2.6667V21.3333H18.6669V14.6666C18.6669 14.3129 18.8074 13.9738 19.0574 13.7237C19.3075 13.4737 19.6466 13.3332 20.0002 13.3332C20.3539 13.3332 20.693 13.4737 20.9431 13.7237C21.1931 13.9738 21.3336 14.3129 21.3336 14.6666V21.3333C21.3336 22.0406 21.0526 22.7188 20.5525 23.2189C20.0524 23.719 19.3741 24 18.6669 24H2.6667C1.95945 24 1.28116 23.719 0.781058 23.2189C0.280955 22.7188 0 22.0406 0 21.3333V5.33311Z" fill="#9C9C9C"/>
</svg>
