<svg width="24" height="24" viewBox="0 0 24 24" fill="none" xmlns="http://www.w3.org/2000/svg">
<path d="M16.0458 0.702652C18.5311 1.59268 20.6534 3.27729 22.0843 5.4956C23.515 7.71389 24.1745 10.3421 23.9605 12.9731C23.7464 15.6041 22.6708 18.0911 20.9002 20.0491C19.1296 22.0069 16.7629 23.3263 14.1665 23.8028C11.5702 24.2795 8.88912 23.8867 6.53861 22.6853C4.1881 21.484 2.29931 19.5412 1.16477 17.1577C0.808708 16.4096 1.12645 15.5145 1.87445 15.1586C2.62247 14.8025 3.5175 15.1202 3.87355 15.8682C4.72446 17.6558 6.14105 19.1131 7.90393 20.014C9.66681 20.915 11.6776 21.2096 13.6249 20.8522C15.5721 20.4947 17.3471 19.5052 18.6751 18.0368C20.003 16.5685 20.8097 14.7031 20.9702 12.7298C21.1309 10.7566 20.6362 8.78544 19.5631 7.12171C18.49 5.45798 16.8983 4.19451 15.0344 3.52701C13.1705 2.85949 11.1386 2.82517 9.25323 3.42937C8.01968 3.82468 6.89396 4.47891 5.9469 5.33957L7.04671 6.43939C7.99167 7.38433 7.32241 9.00006 5.98605 9.00006H0V3.014C0 1.67764 1.61572 1.00839 2.56067 1.95334L3.82375 3.21643C5.10807 2.02096 6.64691 1.11433 8.33766 0.572486C10.8515 -0.233117 13.5607 -0.187367 16.0458 0.702652ZM12 6.00002C12.8285 6.00002 13.5 6.6716 13.5 7.50002V11.3787L16.0607 13.9394C16.6465 14.5252 16.6465 15.4749 16.0607 16.0607C15.4749 16.6465 14.5252 16.6465 13.9394 16.0607L10.5 12.6214V7.50002C10.5 6.6716 11.1716 6.00002 12 6.00002Z" fill="#E8E9ED"/>
</svg>
