<svg width="39" height="39" viewBox="0 0 39 39" fill="none" xmlns="http://www.w3.org/2000/svg">
<path d="M25.811 1.13027C29.8086 2.56194 33.2226 5.27176 35.5242 8.84009C37.8256 12.4084 38.8866 16.6361 38.5423 20.8683C38.1979 25.1004 36.4677 29.1009 33.6195 32.2505C30.7714 35.3997 26.9643 37.5221 22.7879 38.2887C18.6115 39.0555 14.2988 38.4235 10.5179 36.4911C6.73688 34.5586 3.69862 31.4335 1.87361 27.5994C1.30087 26.3961 1.81198 24.9563 3.0152 24.3838C4.21845 23.8109 5.65816 24.322 6.23091 25.5253C7.59966 28.4007 9.87835 30.7448 12.7141 32.194C15.5498 33.6434 18.7843 34.1173 21.9166 33.5423C25.049 32.9673 27.9041 31.3755 30.0403 29.0136C32.1764 26.6516 33.474 23.6511 33.7322 20.4769C33.9906 17.3028 33.1949 14.132 31.4687 11.4558C29.7425 8.77957 27.1822 6.74719 24.184 5.67346C21.1858 4.59971 17.9172 4.5445 14.8845 5.51641C12.9003 6.1523 11.0895 7.20467 9.56605 8.5891L11.3352 10.3582C12.8552 11.8783 11.7787 14.4773 9.62903 14.4773H0V4.84826C0 2.69861 2.599 1.62207 4.11904 3.14209L6.1508 5.17387C8.21672 3.25086 10.6921 1.79248 13.4118 0.920888C17.4554 -0.374986 21.8135 -0.301394 25.811 1.13027ZM19.303 9.65149C20.6356 9.65149 21.7159 10.7318 21.7159 12.0644V18.3035L25.8349 22.4226C26.7771 23.3649 26.7771 24.8926 25.8349 25.8349C24.8926 26.7771 23.3649 26.7771 22.4226 25.8349L16.8901 20.3024V12.0644C16.8901 10.7318 17.9704 9.65149 19.303 9.65149Z" fill="#E8E9ED"/>
</svg>
