<svg width="24" height="25" viewBox="0 0 24 25" fill="none" xmlns="http://www.w3.org/2000/svg">
<path d="M8.4 11.3071H15.6C15.9183 11.3071 16.2235 11.4335 16.4485 11.6585C16.6736 11.8836 16.8 12.1888 16.8 12.5071C16.8 12.8253 16.6736 13.1306 16.4485 13.3556C16.2235 13.5806 15.9183 13.7071 15.6 13.7071H8.4C8.08174 13.7071 7.77651 13.5806 7.55147 13.3556C7.32643 13.1306 7.2 12.8253 7.2 12.5071C7.2 12.1888 7.32643 11.8836 7.55147 11.6585C7.77651 11.4335 8.08174 11.3071 8.4 11.3071Z" fill="#9C9C9C"/>
<path fill-rule="evenodd" clip-rule="evenodd" d="M5.33316 2.52944C7.30655 1.21087 9.62663 0.50708 12 0.50708C13.5759 0.50708 15.1363 0.817469 16.5922 1.42053C18.0481 2.02358 19.371 2.9075 20.4853 4.0218C21.5996 5.1361 22.4835 6.45897 23.0866 7.91488C23.6896 9.37078 24 10.9312 24 12.5071C24 14.8805 23.2962 17.2005 21.9776 19.1739C20.6591 21.1473 18.7849 22.6854 16.5922 23.5936C14.3995 24.5019 11.9867 24.7395 9.65892 24.2765C7.33115 23.8135 5.19295 22.6706 3.51472 20.9924C1.83649 19.3141 0.693605 17.1759 0.230582 14.8482C-0.232441 12.5204 0.00519941 10.1076 0.913451 7.91488C1.8217 5.72216 3.35977 3.84802 5.33316 2.52944ZM6.66653 20.4892C8.24524 21.544 10.1013 22.1071 12 22.1071C14.5461 22.1071 16.9879 21.0957 18.7882 19.2953C20.5886 17.495 21.6 15.0532 21.6 12.5071C21.6 10.6084 21.037 8.75232 19.9821 7.1736C18.9272 5.59489 17.4279 4.36444 15.6738 3.63784C13.9196 2.91124 11.9894 2.72112 10.1271 3.09154C8.26492 3.46196 6.55436 4.37627 5.21178 5.71885C3.8692 7.06144 2.95488 8.77199 2.58447 10.6342C2.21405 12.4964 2.40416 14.4267 3.13076 16.1808C3.85736 17.935 5.08782 19.4343 6.66653 20.4892Z" fill="#9C9C9C"/>
</svg>
